<?xml version="1.0" encoding="UTF-8" standalone="no"?>
<!-- Generator: Adobe Illustrator 16.0.4, SVG Export Plug-In . SVG Version: 6.00 Build 0)  -->
<!DOCTYPE svg  PUBLIC '-//W3C//DTD SVG 1.1//EN'  'http://www.w3.org/Graphics/SVG/1.1/DTD/svg11.dtd'>
<svg id="Layer_1" xmlns="http://www.w3.org/2000/svg" xml:space="preserve" height="155px" viewBox="0 0 400 155" width="400px" version="1.1" y="0px" x="0px" xmlns:xlink="http://www.w3.org/1999/xlink" enable-background="new 0 0 400 155">
<g fill="#2D2D2D">
		<path d="m115.17 111.8c-0.917 0.96-2.084 2.05-3.502 3.273-1.418 1.222-3.011 2.453-4.779 3.697s-3.677 2.456-5.729 3.635c-2.051 1.178-4.146 2.226-6.285 3.143-2.139 0.916-4.288 1.646-6.448 2.191-2.16 0.546-4.245 0.819-6.252 0.819-1.397 0-2.804-0.24-4.222-0.72-1.419-0.482-2.707-1.364-3.863-2.652-1.157-1.286-2.106-3.065-2.848-5.335s-1.113-5.216-1.113-8.838c0-1.527 0.109-3.176 0.327-4.943s0.501-3.677 0.851-5.728c-2.444 4.932-5.205 9.286-8.281 13.06-3.077 3.776-6.35 6.939-9.82 9.492-3.47 2.554-7.06 4.486-10.769 5.795-3.71 1.31-7.42 1.964-11.129 1.964-4.059 0-7.911-0.709-11.555-2.129-3.645-1.418-6.863-3.535-9.656-6.35s-5.008-6.316-6.645-10.506-2.452-9.06-2.452-14.644c0-4.233 0.491-8.663 1.473-13.29 0.982-4.625 2.411-9.296 4.288-14.009 1.876-4.714 4.146-9.384 6.809-14.01 2.662-4.626 5.695-9.023 9.1-13.191s7.125-8.03 11.162-11.588c4.036-3.557 8.347-6.633 12.929-9.23 4.583-2.596 9.405-4.637 14.468-6.121 5.062-1.483 10.321-2.226 15.777-2.226 1.483 0 2.673 0.121 3.568 0.36 0.894 0.24 1.571 0.546 2.029 0.916 0.458 0.371 0.753 0.753 0.884 1.146s0.196 0.742 0.196 1.047c0 0.219-0.011 0.415-0.033 0.589-0.022 0.175-0.033 0.307-0.033 0.394v0.327c1.178 0.698 2.378 1.124 3.601 1.276 1.222 0.153 2.422 0.284 3.601 0.393 1.178 0.109 2.292 0.339 3.339 0.688 1.047 0.35 1.964 1.037 2.75 2.062s1.407 2.521 1.866 4.484c0.458 1.964 0.688 4.626 0.688 7.986 0 2.619-0.251 5.564-0.753 8.838-0.502 3.273-1.168 6.7-1.997 10.278-0.83 3.579-1.757 7.201-2.783 10.867s-2.051 7.224-3.077 10.671c-1.026 3.448-2.019 6.699-2.979 9.754-0.96 3.056-1.768 5.718-2.422 7.987-0.131 1.921-0.24 3.71-0.327 5.368-0.088 1.659-0.131 3.383-0.131 5.173 0 1.396 0.033 2.542 0.098 3.436 0.065 0.896 0.185 1.604 0.36 2.129 0.174 0.523 0.415 0.882 0.72 1.078 0.305 0.197 0.698 0.296 1.178 0.296 0.873 0 1.975-0.23 3.306-0.688s2.75-1.047 4.255-1.768c1.505-0.72 3.077-1.526 4.713-2.422 1.637-0.894 3.208-1.789 4.713-2.685 1.506-0.893 2.913-1.712 4.223-2.453 1.309-0.742 2.4-1.354 3.273-1.834l3.34 12.764zm-30.963-84.645c-1.528-0.437-3.11-0.753-4.747-0.949s-3.219-0.295-4.746-0.295c-3.535 0-7.027 0.677-10.475 2.029-3.448 1.354-6.798 3.197-10.049 5.532s-6.35 5.085-9.296 8.248c-2.946 3.165-5.695 6.569-8.249 10.213-2.553 3.645-4.856 7.431-6.907 11.358-2.052 3.928-3.819 7.846-5.303 11.751-1.484 3.906-2.619 7.703-3.404 11.391-0.786 3.688-1.178 7.082-1.178 10.181 0 6.154 1.233 10.923 3.699 14.304 2.465 3.383 6.295 5.074 11.489 5.074 3.229 0 6.295-0.677 9.198-2.029 2.902-1.354 5.597-3.132 8.085-5.337 2.488-2.202 4.768-4.689 6.841-7.463 2.072-2.771 3.884-5.574 5.434-8.412 1.549-2.836 2.825-5.574 3.83-8.216 1.003-2.64 1.724-4.92 2.16-6.841l13.618-50.536z"/>
		<path d="m122.44 126.47c-2.356 0-4.55-1.037-6.579-3.111-2.029-2.071-3.797-4.854-5.303-8.345-1.506-3.492-2.684-7.539-3.535-12.146-0.851-4.604-1.276-9.437-1.276-14.5 0-3.884 0.283-8.106 0.851-12.668 0.567-4.56 1.396-9.263 2.487-14.107 1.091-4.845 2.39-9.71 3.896-14.599 1.505-4.888 3.208-9.58 5.106-14.075s3.961-8.695 6.187-12.602c2.226-3.906 4.561-7.311 7.005-10.213s4.997-5.183 7.66-6.841c2.662-1.658 5.368-2.488 8.118-2.488 1.876 0 3.426 0.426 4.648 1.276 1.222 0.852 2.182 1.976 2.88 3.372s1.189 2.979 1.473 4.746c0.283 1.768 0.425 3.567 0.425 5.4 0 4.104-0.469 8.282-1.408 12.537s-2.204 8.532-3.797 12.831c-1.593 4.299-3.437 8.608-5.532 12.93-2.095 4.32-4.277 8.608-6.546 12.863-2.27 4.256-4.55 8.445-6.841 12.569-2.291 4.125-4.441 8.15-6.448 12.079-0.219 0.437-0.448 1.004-0.688 1.702s-0.469 1.451-0.687 2.258c-0.219 0.809-0.437 1.67-0.655 2.587-0.219 0.916-0.393 1.811-0.524 2.685v0.916c0 1.134 0.12 2.236 0.36 3.305 0.239 1.071 0.534 2.029 0.884 2.881 0.349 0.851 0.72 1.529 1.113 2.029 0.393 0.503 0.763 0.754 1.113 0.754 0.829 0 1.778-0.175 2.848-0.523 1.069-0.35 2.204-0.819 3.404-1.409 1.2-0.589 2.433-1.265 3.699-2.029 1.266-0.762 2.488-1.537 3.666-2.322 2.75-1.833 5.63-3.95 8.642-6.352l5.368 13.749c-3.885 2.793-7.725 5.28-11.522 7.463-1.659 0.916-3.372 1.822-5.139 2.716-1.768 0.896-3.546 1.691-5.335 2.391-1.79 0.697-3.535 1.254-5.237 1.668-1.68 0.4-3.28 0.61-4.76 0.61zm0.06-52.377c1.964-3.491 4.048-7.419 6.252-11.784 2.204-4.363 4.288-8.859 6.252-13.485s3.666-9.241 5.106-13.846c1.44-4.604 2.356-8.893 2.75-12.864 0-1.266-0.033-2.346-0.098-3.24s-0.273-1.342-0.622-1.342c-1.266 0-2.63 0.817-4.091 2.454-1.463 1.637-2.925 3.853-4.386 6.646-1.463 2.793-2.859 6.045-4.19 9.754-1.332 3.71-2.521 7.659-3.568 11.85-1.047 4.189-1.877 8.5-2.488 12.929-0.6 4.429-0.91 8.739-0.91 12.928z"/>
		<path d="m185.68 77.432c1.265 2.531 2.214 5.204 2.848 8.02 0.632 2.814 0.949 5.51 0.949 8.085s-0.284 5.172-0.851 7.791c-0.568 2.619-1.386 5.149-2.455 7.594-1.07 2.443-2.379 4.734-3.928 6.874-1.55 2.139-3.317 3.993-5.303 5.564s-4.157 2.815-6.514 3.731c-2.357 0.917-4.867 1.375-7.529 1.375-3.841 0-7.125-0.841-9.853-2.521-2.728-1.679-4.965-3.873-6.71-6.578-1.746-2.706-3.022-5.761-3.83-9.165s-1.211-6.853-1.211-10.345c0-4.801 0.72-9.285 2.161-13.453 1.44-4.167 3.502-7.79 6.186-10.867s5.968-5.499 9.853-7.267 8.249-2.651 13.093-2.651c4.146 0 8.03 0.645 11.653 1.932 3.622 1.287 7.015 3.011 10.18 5.172 3.164 2.16 6.11 4.637 8.838 7.43 2.728 2.794 5.27 5.674 7.627 8.642l-1.244 9.23c-1.178-1.571-2.771-3.273-4.779-5.106s-4.135-3.622-6.383-5.368c-2.248-1.745-4.463-3.393-6.645-4.942-2.183-1.549-4.059-2.848-5.63-3.896l-0.55 0.721zm-20.23 36.468c1.483 0 2.924-0.754 4.321-2.26 1.396-1.506 2.619-3.404 3.666-5.695s1.887-4.821 2.521-7.594c0.632-2.771 0.949-5.423 0.949-7.954 0-2.007-0.153-3.873-0.458-5.598-0.306-1.724-0.764-3.218-1.375-4.484-0.611-1.265-1.397-2.269-2.357-3.011s-2.117-1.113-3.47-1.113c-1.79 0-3.492 0.764-5.106 2.291-1.615 1.528-3.034 3.481-4.255 5.859-1.222 2.379-2.183 5.008-2.88 7.889-0.699 2.881-1.048 5.652-1.048 8.315 0 1.833 0.174 3.556 0.524 5.172 0.349 1.614 0.894 3.021 1.637 4.221 0.742 1.202 1.724 2.16 2.946 2.881 1.22 0.73 2.69 1.09 4.39 1.09z"/>
		<path d="m225.22 85.746c1.789-2.356 3.797-4.887 6.022-7.594 2.226-2.705 4.538-5.226 6.939-7.561 2.4-2.335 4.789-4.277 7.168-5.827 2.38-1.549 4.616-2.323 6.711-2.323 0.523 0 1.112 0.098 1.768 0.294 0.654 0.196 1.276 0.557 1.865 1.08 0.59 0.524 1.08 1.255 1.474 2.193 0.393 0.938 0.589 2.149 0.589 3.634 0 2.968-0.415 5.858-1.244 8.674-0.83 2.814-1.734 5.63-2.717 8.445-0.981 2.814-1.876 5.685-2.684 8.608-0.809 2.925-1.211 5.979-1.211 9.166 0 1.745 0.262 3.143 0.785 4.189 0.523 1.048 1.199 1.571 2.029 1.571 1.048 0 2.16-0.219 3.339-0.654 1.179-0.438 2.356-1.005 3.535-1.702 1.179-0.699 2.334-1.495 3.47-2.391 1.134-0.894 2.203-1.821 3.208-2.781 2.399-2.226 4.757-4.758 7.07-7.595l1.112 17.414c-0.785 0.61-1.778 1.375-2.979 2.292-1.2 0.916-2.531 1.888-3.993 2.911-1.463 1.027-3.044 2.063-4.746 3.111s-3.415 1.975-5.14 2.781c-1.724 0.809-3.447 1.474-5.172 1.998-1.724 0.523-3.371 0.785-4.942 0.785-2.401 0-4.484-0.645-6.252-1.933-1.768-1.285-3.22-2.922-4.354-4.91-1.135-1.984-1.986-4.155-2.553-6.512s-0.852-4.583-0.852-6.678c0-1.397 0.186-2.956 0.557-4.683 0.371-1.723 0.829-3.457 1.375-5.203s1.156-3.448 1.833-5.106 1.31-3.143 1.898-4.452 1.102-2.378 1.538-3.208c0.437-0.828 0.721-1.309 0.852-1.439l-1.375-0.197c-0.742 0.481-1.997 1.702-3.765 3.667-1.768 1.964-3.764 4.44-5.989 7.43-2.227 2.99-4.528 6.351-6.907 10.081-2.379 3.731-4.528 7.584-6.449 11.557-0.96 1.964-1.746 3.676-2.356 5.138-0.611 1.464-1.211 2.663-1.8 3.601-0.589 0.939-1.233 1.648-1.931 2.129-0.699 0.479-1.594 0.72-2.684 0.72-1.44 0-2.576-0.415-3.404-1.244-0.83-0.83-1.462-1.933-1.898-3.307-0.437-1.375-0.72-2.935-0.851-4.68-0.131-1.747-0.196-3.535-0.196-5.368 0-2.925 0.033-6.754 0.098-11.49 0.065-4.735 0.272-9.983 0.622-15.744 0.349-5.761 0.851-11.827 1.506-18.199s1.582-12.668 2.782-18.887c1.2-6.22 2.706-12.154 4.517-17.807 1.811-5.651 4.015-10.627 6.612-14.926 2.596-4.299 5.64-7.714 9.132-10.246 3.491-2.53 7.506-3.797 12.046-3.797 2.356 0 4.287 0.35 5.793 1.048s2.707 1.681 3.601 2.945c0.895 1.267 1.517 2.782 1.866 4.55 0.348 1.768 0.523 3.743 0.523 5.925 0 3.23-0.458 6.809-1.375 10.736-0.916 3.928-2.127 8.009-3.633 12.242s-3.22 8.521-5.14 12.864-3.884 8.554-5.892 12.635-3.982 7.933-5.925 11.555-3.655 6.808-5.139 9.558l1.28 0.894zm5.82-40.457c2.575-6.678 4.441-12.308 5.598-16.89 1.155-4.583 1.734-7.965 1.734-10.147 0-3.316-0.438-4.976-1.31-4.976-1.135 0-2.814 1.855-5.04 5.564-2.227 3.71-4.845 9.1-7.856 16.17-0.742 2.4-1.43 4.889-2.062 7.463-0.633 2.576-1.201 5.14-1.702 7.692-0.502 2.554-0.96 5.063-1.375 7.528-0.415 2.467-0.775 4.812-1.08 7.038-0.743 5.193-1.31 10.278-1.702 15.253 1.178-2.749 2.465-5.738 3.862-8.969 1.396-3.229 2.771-6.426 4.124-9.591 1.353-3.163 2.629-6.153 3.83-8.969 1.22-2.813 2.21-5.203 2.99-7.166z"/>
		<path d="m338.21 110.43c-1.005 1.396-2.347 3.032-4.026 4.91-1.68 1.876-3.568 3.666-5.663 5.368s-4.343 3.143-6.742 4.32c-2.401 1.179-4.802 1.768-7.201 1.768-2.881 0-5.282-0.927-7.201-2.783-1.921-1.854-3.58-4.549-4.976-8.084-1.048 1.222-2.336 2.466-3.862 3.731-1.528 1.265-3.197 2.412-5.009 3.436-1.811 1.026-3.698 1.867-5.662 2.522-1.964 0.654-3.929 0.981-5.893 0.981-2.095 0-4.135-0.427-6.121-1.277-1.985-0.852-3.743-2.071-5.27-3.666-1.528-1.593-2.749-3.535-3.666-5.827-0.917-2.291-1.375-4.876-1.375-7.756 0-3.273 0.458-6.635 1.375-10.082 0.917-3.448 2.182-6.819 3.797-10.115 1.614-3.295 3.524-6.404 5.729-9.329 2.203-2.923 4.615-5.477 7.233-7.659 2.619-2.182 5.379-3.917 8.281-5.204 2.903-1.287 5.859-1.932 8.871-1.932 1.003 0 1.788 0.196 2.356 0.59 0.567 0.393 1.037 0.84 1.407 1.342 0.371 0.502 0.731 0.993 1.081 1.473 0.348 0.48 0.785 0.829 1.309 1.048s1.059 0.359 1.604 0.425 1.101 0.099 1.669 0.099c0.479 0 0.972-0.011 1.473-0.033 0.502-0.021 0.993-0.032 1.474-0.032 0.654 0 1.265 0.065 1.833 0.196 0.566 0.131 1.068 0.415 1.506 0.852 0.436 0.437 0.774 1.047 1.015 1.833 0.239 0.785 0.359 1.854 0.359 3.207 0 2.096-0.219 4.419-0.654 6.973-0.438 2.553-0.916 5.172-1.44 7.855-0.523 2.685-1.004 5.368-1.44 8.053-0.437 2.684-0.654 5.226-0.654 7.627 0 2.051 0.186 3.656 0.557 4.811 0.37 1.157 1.166 1.736 2.39 1.736 0.916 0 1.876-0.23 2.88-0.688 1.003-0.459 2.02-1.059 3.044-1.799 1.025-0.743 2.052-1.582 3.077-2.522 1.025-0.938 1.997-1.908 2.913-2.912 2.139-2.356 4.299-5.019 6.481-7.987l3.13 14.527zm-55.91-5.17c0 1.091 0.075 2.15 0.229 3.174 0.153 1.026 0.426 1.943 0.818 2.75 0.393 0.809 0.917 1.464 1.571 1.964 0.654 0.503 1.483 0.754 2.487 0.754 1.614 0 3.077-0.699 4.387-2.095 1.31-1.397 2.443-3.077 3.404-5.041 0.959-1.964 1.734-3.993 2.324-6.088 0.589-2.096 0.97-3.841 1.146-5.238l3.993-19.247c-1.79 0-3.535 0.448-5.237 1.342-1.702 0.896-3.306 2.106-4.812 3.634s-2.893 3.273-4.157 5.237c-1.266 1.964-2.356 4.026-3.273 6.187-0.916 2.16-1.626 4.332-2.128 6.514-0.49 2.181-0.75 4.231-0.75 6.161z"/>
		<path d="m220 154.49l8.512-20.695h2.163l8.479 20.695h-2.798l-2.447-6.055h-8.687l-2.425 6.055h-2.78zm9.59-17.65l-3.847 9.551h7.573l-3.72-9.55z"/>
		<path d="m241.93 154.49v-20.695h8.625c0.916 0 1.753 0.192 2.528 0.573 0.758 0.382 1.431 0.886 1.985 1.509 0.54 0.635 0.98 1.338 1.287 2.131 0.307 0.788 0.472 1.59 0.472 2.398 0 0.854-0.154 1.692-0.439 2.48-0.284 0.808-0.704 1.517-1.239 2.131-0.536 0.633-1.171 1.124-1.924 1.495-0.753 0.369-1.579 0.546-2.496 0.546h-6.174v7.432h-2.64zm2.62-9.75h6.032c0.545 0 1.032-0.125 1.479-0.336 0.427-0.228 0.804-0.534 1.11-0.938 0.312-0.403 0.557-0.858 0.731-1.383s0.271-1.081 0.271-1.671c0-0.591-0.113-1.159-0.32-1.683-0.196-0.525-0.471-0.982-0.81-1.367-0.339-0.393-0.742-0.688-1.191-0.905-0.468-0.22-0.943-0.318-1.446-0.318h-5.857v8.6z"/>
		<path d="m260.02 154.49v-20.695h8.632c0.916 0 1.753 0.192 2.528 0.573 0.756 0.382 1.431 0.886 1.987 1.509 0.538 0.635 0.979 1.338 1.286 2.131 0.306 0.788 0.474 1.59 0.474 2.398 0 0.854-0.157 1.692-0.441 2.48-0.285 0.808-0.705 1.517-1.24 2.131-0.536 0.633-1.171 1.124-1.923 1.495-0.754 0.369-1.58 0.546-2.497 0.546h-6.184v7.432h-2.63zm2.63-9.75h6.042c0.545 0 1.032-0.125 1.479-0.336 0.428-0.228 0.804-0.534 1.11-0.938 0.311-0.403 0.557-0.858 0.731-1.383s0.272-1.081 0.272-1.671c0-0.591-0.114-1.159-0.321-1.683-0.193-0.525-0.47-0.982-0.81-1.367-0.339-0.393-0.742-0.688-1.191-0.905-0.468-0.22-0.943-0.318-1.446-0.318h-5.867v8.6z"/>
		<path d="m274.58 154.49l8.509-20.695h2.164l8.483 20.695h-2.812l-2.447-6.055h-8.67l-2.415 6.055h-2.8zm9.59-17.65l-3.847 9.551h7.582l-3.73-9.55z"/>
		<path d="m296.51 154.49v-20.695h8.852c0.917 0 1.754 0.192 2.529 0.573 0.775 0.382 1.432 0.886 1.987 1.509 0.558 0.635 0.979 1.338 1.286 2.131 0.326 0.788 0.479 1.59 0.479 2.398 0 0.722-0.113 1.415-0.319 2.082-0.19 0.688-0.494 1.284-0.875 1.83-0.363 0.546-0.833 1.005-1.368 1.398-0.534 0.394-1.121 0.666-1.796 0.842l5.024 7.932h-2.972l-4.721-7.432h-5.484v7.432h-2.63zm2.62-9.75h6.262c0.546 0 1.033-0.13 1.479-0.352 0.428-0.238 0.804-0.551 1.11-0.955 0.325-0.403 0.557-0.857 0.73-1.382 0.177-0.524 0.273-1.07 0.273-1.639s-0.113-1.122-0.303-1.635c-0.205-0.513-0.488-0.982-0.827-1.382-0.339-0.388-0.743-0.703-1.192-0.923-0.449-0.229-0.944-0.334-1.446-0.334h-6.087v8.59z"/>
		<path d="m329.92 152.16v2.335h-14.052v-20.695h13.779v2.338h-11.157v6.707h9.701v2.178h-9.701v7.138h11.43z"/>
		<path d="m333.64 154.49v-20.695h2.633v18.36h11.539v2.335h-14.17z"/>
		<path d="m356.06 144c0-1.244 0.225-2.485 0.653-3.72 0.445-1.234 1.081-2.348 1.923-3.322 0.841-0.975 1.893-1.774 3.116-2.381 1.225-0.596 2.611-0.892 4.164-0.892 1.837 0 3.421 0.406 4.753 1.243 1.312 0.843 2.304 1.935 2.94 3.27l-2.067 1.334c-0.306-0.656-0.682-1.212-1.129-1.65-0.428-0.457-0.915-0.818-1.431-1.082-0.514-0.282-1.045-0.465-1.59-0.59-0.533-0.109-1.062-0.174-1.59-0.174-1.153 0-2.165 0.245-3.051 0.716-0.884 0.471-1.631 1.104-2.224 1.869-0.61 0.764-1.055 1.627-1.369 2.598-0.297 0.952-0.443 1.93-0.443 2.892 0 1.093 0.18 2.126 0.541 3.118 0.359 0.974 0.857 1.843 1.492 2.606 0.653 0.745 1.399 1.354 2.273 1.794 0.873 0.457 1.832 0.686 2.861 0.686 0.547 0 1.108-0.074 1.679-0.207 0.566-0.131 1.118-0.354 1.644-0.655 0.525-0.311 1.01-0.693 1.479-1.142 0.448-0.448 0.825-1.001 1.11-1.654l2.196 1.211c-0.329 0.767-0.803 1.449-1.384 2.049-0.601 0.591-1.267 1.099-2.021 1.494-0.738 0.414-1.536 0.72-2.366 0.938-0.833 0.219-1.66 0.317-2.447 0.317-1.422 0-2.73-0.306-3.911-0.927-1.181-0.625-2.209-1.43-3.086-2.443-0.863-0.995-1.53-2.127-2-3.399-0.45-1.29-0.7-2.59-0.7-3.91z"/>
		<path d="m385.5 154.64c-1.445 0-2.782-0.289-3.974-0.89-1.19-0.581-2.214-1.377-3.066-2.35-0.873-0.992-1.529-2.104-1.987-3.371-0.472-1.268-0.7-2.548-0.7-3.878 0-1.377 0.237-2.71 0.748-3.957 0.492-1.267 1.176-2.392 2.049-3.354 0.875-0.981 1.907-1.743 3.1-2.321 1.191-0.577 2.496-0.858 3.896-0.858 1.462 0 2.774 0.303 3.974 0.923 1.182 0.603 2.199 1.408 3.052 2.399 0.853 0.985 1.519 2.114 1.988 3.371 0.46 1.256 0.699 2.52 0.699 3.83 0 1.376-0.257 2.706-0.749 3.956-0.491 1.268-1.169 2.386-2.033 3.338-0.863 0.972-1.902 1.74-3.102 2.306-1.19 0.57-2.5 0.85-3.9 0.85zm-7.07-10.49c0 1.048 0.168 2.06 0.508 3.052 0.34 0.975 0.814 1.844 1.447 2.606 0.612 0.765 1.365 1.356 2.24 1.813 0.874 0.438 1.836 0.667 2.908 0.667 1.113 0 2.097-0.245 2.972-0.716 0.874-0.471 1.622-1.103 2.242-1.872 0.604-0.76 1.075-1.629 1.399-2.611 0.317-0.962 0.476-1.955 0.476-2.939 0-1.05-0.168-2.062-0.507-3.054-0.34-0.974-0.822-1.837-1.464-2.591-0.624-0.753-1.378-1.339-2.241-1.797-0.862-0.438-1.828-0.666-2.877-0.666-1.097 0-2.1 0.239-2.974 0.699-0.875 0.478-1.622 1.081-2.223 1.845-0.623 0.744-1.087 1.622-1.417 2.591-0.34 0.97-0.5 1.97-0.5 2.98z"/>
		<path d="m397.84 154.49v-3.258h2.16v3.258h-2.16z"/>
</g>
</svg>
